# xmcd
#
# Track frame offsets: 
#        150
#        7014
#        23325
#        33387
#        36700
#        39149
#        50474
#        67395
#        81485
#        98202
#        140256
#        152927
#        189073
#        191317
#        207140
#        244556
#
# Disc length: 3569 seconds
#
# Revision: 0
# Processed by: cddbd v1.5.2PL0 Copyright (c) Steve Scherf et al.
# Submitted via: ExactAudioCopy v1.0b3
#
DISCID=cf0def10
DTITLE=Ike and Tina Turner - What You Hear Is What You Get
DYEAR=1971
DGENRE=Soul
TTITLE0=Introduction
TTITLE1=Piece Of My Heart
TTITLE2=Everyday People
TTITLE3=Introduction To Tina
TTITLE4=Doin' The Tina Turner
TTITLE5=Sweet Soul Music
TTITLE6=Ooh Poo Pah Doo
TTITLE7=Honky Tonk Women
TTITLE8=A Love Like Yours (Don't Come Kinockin' Everyday)
TTITLE9=Proud Mary
TTITLE10=(Encore Of) Proud Mary
TTITLE11=I Smell Trouble
TTITLE12=Ike's Tune
TTITLE13=I Want To Take You Higher
TTITLE14=I've Been Loving You Too Long
TTITLE15=Respect
EXTD=
EXTT0=
EXTT1=
EXTT2=
EXTT3=
EXTT4=
EXTT5=
EXTT6=
EXTT7=
EXTT8=
EXTT9=
EXTT10=
EXTT11=
EXTT12=
EXTT13=
EXTT14=
EXTT15=
PLAYORDER=
